<svg xmlns="http://www.w3.org/2000/svg" width="971" height="775" fill="none"><path fill="#5ce1e6" stroke="#5ce1e6" d="M66.494 4.193C92.9-5.894 209.485 10.328 260.223 19.53s139.403 42.944 204.492 65.95c79.691 34.638 124.949 57.217 206.029 102.759 58.852 35.77 92.235 57.611 146.065 101.225l53.814 46.012c19.528 18.456 30.333 29.658 49.2 52.146 14.051 18.072 21.188 28.783 32.289 49.079 12.504 27.112 14.558 42.207 16.912 69.017-4.091 17.347-16.912 35.276-16.912 35.276s-35.364 37.478-72.264 60.484c-36.901 23.006-61.179 36.993-103.015 55.213-57.782 25.166-89.972 36.024-150.678 53.012-54.429 15.232-85.372 23.57-141.453 30.674-50.687 6.421-69.188 9.203-130.69 6.135s-76.876-30.674-76.876-30.674c-5.917-10.13-7.632-17.586-7.688-33.742 6.597-18.635 11.745-28.814 26.138-46.012 22.619-20.276 35.379-30.7 58.426-46.011s47.664-27.607 47.664-27.607-55.872-10.931-90.714-21.472c-37.46-11.333-58.674-18.023-93.79-35.276-27.529-13.525-44.158-20.183-67.651-39.876-12.352-10.354-21.081-15.241-29.213-29.141-6.988-11.943-11.662-19.943-10.763-33.742.958-14.701 16.913-33.742 16.913-33.742s33.391-22.784 57.391-31.713c20.612-7.669 54.849-12.764 54.849-12.764s-49.984-32.924-79.952-56.748c-24.295-19.314-37.699-30.534-59.964-52.146-22.23-21.581-35.102-33.602-53.813-58.282-16.279-21.47-28.834-32.592-36.9-58.28-4.722-15.037-9.003-24.38-6.151-39.878 2.717-14.763 7.961-22.98 18.45-33.741C34.225 11.448 66.494 4.193 66.494 4.193Z"/><path fill="#38b6ff" d="M146.693 329.999c40.49-18.851 45.354-19.657 76.308-27.42 37.735-9.465 98.11-15.424 98.11-15.424s55.029-3.536 90.323-3.428c52.39.16 81.824 2.548 133.928 8.569 58.172 6.722 91.075 10.649 147.944 25.707 32.001 8.473 49.772 14.196 80.98 25.706 27.738 10.231 43.189 16.45 70.078 29.135 22.254 10.498 35.522 15.028 56.063 29.134 16.201 11.126 25.841 17.262 38.933 32.562 11.681 13.651 19.531 21.626 24.916 39.417 4.438 14.659 6.385 24.39 3.115 39.417-3.574 16.427-10.729 24.449-20.245 37.703-15.732 21.911-32.703 34.276-48.276 47.986s-48.368 33.349-80.98 51.413c-29.329 16.247-46.632 23.896-76.794 37.23l-1.071.474c-57.106 25.246-89.775 38.511-149.501 54.841-45.031 12.311-104.339 22.279-116.798 23.993-12.458 1.713-64.515 6.323-105.896 5.141-12.782-.365-20.066.423-32.704-1.714-13.707-2.318-21.567-4.136-34.26-10.283-8.976-4.346-14.062-7.084-21.803-13.71-6.789-5.811-11.822-8.62-15.573-17.138-3.226-7.327-3.114-20.565-3.114-20.565l4.544-20.113s10.928-18.493 18.569-29.044c8.17-11.28 11.352-15.238 22.049-26.249 15.282-15.732 42.047-34.276 42.047-34.276l46.719-30.848s-40.131-9.312-65.407-17.138c-29.621-9.171-74.75-27.421-74.75-27.421l-71.636-34.275-44.485-29.684s-19.191-15.038-27.151-28.585c-5.028-8.556-7.327-14.043-9.344-23.993-2.384-11.757-3.416-19.402 0-30.848 3.265-10.939 15.573-23.993 15.573-23.993s16.817-16.332 29.589-22.279"/><path stroke="#38b6ff" d="M740.025 688.18c-57.106 25.246-89.775 38.511-149.501 54.841-45.031 12.311-104.339 22.279-116.798 23.993-12.458 1.713-64.515 6.323-105.896 5.141-12.782-.365-20.066.423-32.704-1.714-13.707-2.318-21.567-4.136-34.26-10.283-8.976-4.346-14.062-7.084-21.803-13.71-6.789-5.811-11.822-8.62-15.573-17.138-3.226-7.327-3.114-20.565-3.114-20.565l4.544-20.113s10.928-18.493 18.569-29.044c8.17-11.28 11.352-15.238 22.049-26.249 15.282-15.732 42.047-34.276 42.047-34.276m392.44 89.117 1.071-.474m-1.071.474 1.071-.474m-393.511-88.643 46.719-30.848m-46.719 30.848 46.719-30.848m0 0s-40.131-9.312-65.407-17.138c-29.621-9.171-74.75-27.42-74.75-27.42l-71.636-34.276-44.485-29.684s-19.191-15.038-27.151-28.585c-5.028-8.556-7.327-14.043-9.344-23.993-2.384-11.757-3.416-19.402 0-30.848 3.265-10.939 15.573-23.993 15.573-23.993s16.817-16.332 29.589-22.279c40.49-18.851 45.354-19.657 76.308-27.42 37.735-9.465 98.11-15.424 98.11-15.424s55.029-3.536 90.323-3.428c52.39.16 81.824 2.548 133.928 8.569 58.172 6.722 91.075 10.649 147.944 25.707 32.001 8.473 49.772 14.196 80.98 25.706 27.738 10.231 43.189 16.45 70.078 29.135 22.254 10.498 35.522 15.028 56.063 29.134 16.201 11.126 25.841 17.262 38.933 32.562 11.681 13.651 19.531 21.626 24.917 39.417 4.437 14.659 6.384 24.39 3.114 39.417-3.574 16.427-10.729 24.449-20.245 37.703-15.732 21.911-32.703 34.276-48.276 47.986s-48.368 33.349-80.98 51.413c-29.329 16.247-46.632 23.896-76.794 37.23"/><path fill="#0096ed" stroke="#0096ed" d="M387.459 566.485c41.88-25.973 112.175-52.398 112.175-52.398s67.567-27.445 112.134-40.479c46.184-13.506 119.973-26.83 119.973-26.83s37.385-6.473 61.547-8.302c32.569-2.466 51.129-3.359 83.6.287 19.239 2.161 30.897.972 48.87 8.682 12.565 5.39 20.903 7.943 29.905 18.832 9.369 11.332 13.625 20.621 14.074 35.805.434 14.711-3.557 22.258-11.165 35.718-9.763 17.272-18.826 26.443-33.266 40.94-21.012 21.096-32.862 27.57-60.667 44.934-34.116 21.306-56.727 32.258-92.665 49.699-46.961 22.791-74.008 34.284-123.21 50.657-37.699 12.545-97.891 26.907-97.891 26.907s-53.66 10.831-88.385 15.02c-36.204 4.367-66.273 6.583-93.088 6.491s-42.583-1.85-66.226-7.039-39.352-23.973-39.352-23.973-9.635-10.297-12.555-18.772c-3.864-11.217 3.26-30.637 3.26-30.637s13.763-25.986 25.379-40.778c11.582-14.748 20.264-22.667 34.819-33.934 28.469-22.037 42.7-32.204 72.734-50.83Z"/></svg>